<svg width="775" height="692" viewBox="0 0 775 692" fill="none" xmlns="http://www.w3.org/2000/svg">
<line x1="39.5" y1="0.00144506" x2="37.5867" y2="662.002" stroke="#B2B2B2"/>
<line x1="110.5" y1="129" x2="110.5" y2="662" stroke="#B2B2B2"/>
<line x1="183.5" y1="53" x2="183.5" y2="597" stroke="#B2B2B2"/>
<line x1="256.5" y1="1.70516e-08" x2="256.5" y2="505" stroke="#B2B2B2"/>
<line x1="329.5" y1="53" x2="329.5" y2="625" stroke="#B2B2B2"/>
<line x1="402.5" y1="18" x2="402.5" y2="562" stroke="#B2B2B2"/>
<line x1="475.5" y1="53" x2="475.5" y2="625" stroke="#B2B2B2"/>
<line x1="548.5" y1="-2.18557e-08" x2="548.5" y2="576.001" stroke="#B2B2B2"/>
<line x1="621.5" y1="-2.18557e-08" x2="621.5" y2="692" stroke="#B2B2B2"/>
<line x1="775" y1="183.5" x2="52" y2="183.5" stroke="#B2B2B2"/>
<line x1="671" y1="110.5" x2="-9" y2="110.5" stroke="#B2B2B2"/>
<line x1="738" y1="37.5" x2="-9" y2="37.5" stroke="#B2B2B2"/>
<line x1="758" y1="256.5" x2="-11" y2="256.5" stroke="#B2B2B2"/>
<line x1="669" y1="329.5" x2="95" y2="329.5" stroke="#B2B2B2"/>
<line x1="669" y1="402.5" x2="170" y2="402.5" stroke="#B2B2B2"/>
<line x1="716" y1="475.5" x2="29" y2="475.5" stroke="#B2B2B2"/>
<line x1="669" y1="548.5" x2="210" y2="548.5" stroke="#B2B2B2"/>
<line x1="716" y1="621.5" x2="52" y2="621.5" stroke="#B2B2B2"/>
<line x1="138" y1="548.5" x2="6" y2="548.5" stroke="#B2B2B2"/>
<line x1="138" y1="402.5" x2="6" y2="402.5" stroke="#B2B2B2"/>
</svg>
