<svg width="165" height="165" viewBox="0 0 165 165" fill="none" xmlns="http://www.w3.org/2000/svg">
<g filter="url(#filter0_d_126_9)">
<path d="M82.3333 18C50.1683 18 24 44.1683 24 76.3333C24 108.498 50.1683 134.667 82.3333 134.667C114.498 134.667 140.667 108.498 140.667 76.3333C140.667 44.1683 114.498 18 82.3333 18ZM82.3333 123C56.6025 123 35.6667 102.064 35.6667 76.3333C35.6667 50.6025 56.6025 29.6667 82.3333 29.6667C108.064 29.6667 129 50.6025 129 76.3333C129 102.064 108.064 123 82.3333 123Z" fill="#8F9EEA"/>
</g>
<g filter="url(#filter1_d_126_9)">
<path d="M73.6475 82.8817L60.2367 69.4942L52 77.7542L73.6592 99.3667L112.778 60.2483L104.529 52L73.6475 82.8817Z" fill="#8F9EEA"/>
</g>
<defs>
<filter id="filter0_d_126_9" x="0" y="0" width="164.667" height="164.667" filterUnits="userSpaceOnUse" color-interpolation-filters="sRGB">
<feFlood flood-opacity="0" result="BackgroundImageFix"/>
<feColorMatrix in="SourceAlpha" type="matrix" values="0 0 0 0 0 0 0 0 0 0 0 0 0 0 0 0 0 0 127 0" result="hardAlpha"/>
<feOffset dy="6"/>
<feGaussianBlur stdDeviation="12"/>
<feComposite in2="hardAlpha" operator="out"/>
<feColorMatrix type="matrix" values="0 0 0 0 0 0 0 0 0 0 0 0 0 0 0 0 0 0 0.25 0"/>
<feBlend mode="normal" in2="BackgroundImageFix" result="effect1_dropShadow_126_9"/>
<feBlend mode="normal" in="SourceGraphic" in2="effect1_dropShadow_126_9" result="shape"/>
</filter>
<filter id="filter1_d_126_9" x="12" y="18" width="140.777" height="127.367" filterUnits="userSpaceOnUse" color-interpolation-filters="sRGB">
<feFlood flood-opacity="0" result="BackgroundImageFix"/>
<feColorMatrix in="SourceAlpha" type="matrix" values="0 0 0 0 0 0 0 0 0 0 0 0 0 0 0 0 0 0 127 0" result="hardAlpha"/>
<feOffset dy="6"/>
<feGaussianBlur stdDeviation="20"/>
<feComposite in2="hardAlpha" operator="out"/>
<feColorMatrix type="matrix" values="0 0 0 0 0 0 0 0 0 0 0 0 0 0 0 0 0 0 0.25 0"/>
<feBlend mode="normal" in2="BackgroundImageFix" result="effect1_dropShadow_126_9"/>
<feBlend mode="normal" in="SourceGraphic" in2="effect1_dropShadow_126_9" result="shape"/>
</filter>
</defs>
</svg>
