<svg width="88" height="29" viewBox="0 0 88 29" fill="none" xmlns="http://www.w3.org/2000/svg">
<g clip-path="url(#clip0_111_83)">
<path d="M57.3042 0.0440369C51.0622 0.0440369 45.4839 3.28259 45.4839 9.26605C45.4839 16.128 55.3771 16.6019 55.3771 20.0491C55.3771 21.5006 53.7153 22.7999 50.8771 22.7999C46.8491 22.7999 43.8385 20.9844 43.8385 20.9844L42.5503 27.0224C42.5503 27.0224 46.0184 28.556 50.6229 28.556C57.4475 28.556 62.8176 25.1584 62.8176 19.0726C62.8176 11.8218 52.8832 11.3619 52.8832 8.1623C52.8832 7.02527 54.2474 5.77943 57.0775 5.77943C60.2708 5.77943 62.876 7.09981 62.876 7.09981L64.1367 1.26814C64.1367 1.26814 61.302 0.0440369 57.3042 0.0440369ZM0.195091 0.484164L0.0439453 1.36442C0.0439453 1.36442 2.67001 1.84549 5.0352 2.80514C8.08058 3.90557 8.29752 4.54618 8.81041 6.5359L14.3994 28.1021H21.8914L33.4335 0.484164H25.9586L18.5422 19.2617L15.5158 3.34498C15.2383 1.52332 13.8324 0.484164 12.1116 0.484164H0.195091ZM36.4392 0.484164L30.5754 28.1021H37.7033L43.5465 0.484164H36.4392ZM76.194 0.484164C74.4752 0.484164 73.5646 1.40527 72.8963 3.01489L62.4535 28.1021H69.9284L71.3745 23.9209H80.4811L81.3605 28.1021H87.9559L82.2021 0.484164H76.194ZM77.1662 7.94567L79.3818 18.3093H73.4459L77.1662 7.94567Z" fill="white"/>
</g>
<defs>
<clipPath id="clip0_111_83">
<rect width="88" height="28.6" fill="white"/>
</clipPath>
</defs>
</svg>
