<svg width="768" height="272" viewBox="0 0 768 272" fill="none" xmlns="http://www.w3.org/2000/svg">
<line x1="734" y1="14.2254" x2="205" y2="14.2254" stroke="white" stroke-width="0.450895"/>
<line x1="514" y1="47.2254" x2="52" y2="47.2254" stroke="white" stroke-width="0.450895"/>
<line x1="768" y1="80.2254" x2="36" y2="80.2254" stroke="white" stroke-width="0.450895"/>
<line x1="768" y1="113.225" x2="36" y2="113.225" stroke="white" stroke-width="0.450895"/>
<line x1="545.702" y1="146.225" x2="318" y2="146.225" stroke="white" stroke-width="0.450895"/>
<line x1="768" y1="178.225" x2="36" y2="178.225" stroke="#98A8F8" stroke-width="0.450895"/>
<line x1="674" y1="246.225" x2="139" y2="246.225" stroke="#98A8F8" stroke-width="0.450895"/>
<line x1="731" y1="212.225" x2="210" y2="212.225" stroke="#98A8F8" stroke-width="0.450895"/>
<line x1="464.775" y1="143" x2="464.775" y2="26" stroke="white" stroke-width="0.450895"/>
<line x1="596.775" y1="143" x2="596.775" y2="26" stroke="white" stroke-width="0.450895"/>
<line x1="199.775" y1="143" x2="199.775" y2="26" stroke="white" stroke-width="0.450895"/>
<line x1="497.775" y1="146" x2="497.775" y2="1.35784e-08" stroke="white" stroke-width="0.450895"/>
<line x1="629.775" y1="146" x2="629.775" y2="1.35784e-08" stroke="white" stroke-width="0.450895"/>
<line x1="530.775" y1="146" x2="530.775" y2="-1.35784e-08" stroke="white" stroke-width="0.450895"/>
<line x1="662.775" y1="146" x2="662.775" y2="-1.35784e-08" stroke="white" stroke-width="0.450895"/>
<line x1="265.775" y1="146" x2="265.775" y2="-1.35784e-08" stroke="white" stroke-width="0.450895"/>
<line x1="431.775" y1="146" x2="431.775" stroke="white" stroke-width="0.450895"/>
<line x1="563.775" y1="146" x2="563.775" stroke="white" stroke-width="0.450895"/>
<line x1="166.775" y1="146" x2="166.775" stroke="white" stroke-width="0.450895"/>
<line x1="398.775" y1="146" x2="398.775" y2="18" stroke="white" stroke-width="0.450895"/>
<line x1="133.775" y1="146" x2="133.775" y2="18" stroke="white" stroke-width="0.450895"/>
<line x1="332.775" y1="146" x2="332.775" y2="7" stroke="white" stroke-width="0.450895"/>
<line x1="265.775" y1="146" x2="265.775" y2="17" stroke="white" stroke-width="0.450895"/>
<line x1="729.775" y1="146" x2="729.775" y2="7" stroke="white" stroke-width="0.450895"/>
<line x1="67.7746" y1="146" x2="67.7745" y2="7" stroke="white" stroke-width="0.450895"/>
<line x1="0.774553" y1="146" x2="0.774558" y2="17" stroke="white" stroke-width="0.450895"/>
<line x1="265.775" y1="225" x2="265.775" y2="146" stroke="#98A8F8" stroke-width="0.450895"/>
<line x1="332.775" y1="209" x2="332.775" y2="146" stroke="#98A8F8" stroke-width="0.450895"/>
<line x1="133.775" y1="209" x2="133.775" y2="146" stroke="#98A8F8" stroke-width="0.450895"/>
<line x1="299.775" y1="259" x2="299.775" y2="176" stroke="#98A8F8" stroke-width="0.450895"/>
<line x1="100.775" y1="259" x2="100.775" y2="176" stroke="#98A8F8" stroke-width="0.450895"/>
<line x1="365.775" y1="239" x2="365.775" y2="146" stroke="#98A8F8" stroke-width="0.450895"/>
<line x1="166.775" y1="239" x2="166.775" y2="146" stroke="#98A8F8" stroke-width="0.450895"/>
<line x1="398.775" y1="259" x2="398.775" y2="146" stroke="#98A8F8" stroke-width="0.450895"/>
<line x1="431.775" y1="259" x2="431.775" y2="171" stroke="#98A8F8" stroke-width="0.450895"/>
<line x1="696.775" y1="259" x2="696.775" y2="171" stroke="#98A8F8" stroke-width="0.450895"/>
<line x1="662.775" y1="259" x2="662.775" y2="171" stroke="#98A8F8" stroke-width="0.450895"/>
<line x1="464.775" y1="196" x2="464.775" y2="146" stroke="#98A8F8" stroke-width="0.450895"/>
<line x1="563.775" y1="196" x2="563.775" y2="146" stroke="#98A8F8" stroke-width="0.450895"/>
<line x1="497.775" y1="259" x2="497.775" y2="146" stroke="#98A8F8" stroke-width="0.450895"/>
<line x1="596.775" y1="259" x2="596.775" y2="146" stroke="#98A8F8" stroke-width="0.450895"/>
<line x1="232.775" y1="259" x2="232.775" y2="146" stroke="#98A8F8" stroke-width="0.450895"/>
<line x1="299.775" y1="124" x2="299.775" y2="-9.85462e-09" stroke="white" stroke-width="0.450895"/>
<line x1="67.7746" y1="259" x2="67.7746" y2="146" stroke="#98A8F8" stroke-width="0.450895"/>
<line x1="530.775" y1="272" x2="530.775" y2="146" stroke="#98A8F8" stroke-width="0.450895"/>
<line x1="629.775" y1="272" x2="629.775" y2="146" stroke="#98A8F8" stroke-width="0.450895"/>
<line x1="265.775" y1="272" x2="265.775" y2="146" stroke="#98A8F8" stroke-width="0.450895"/>
<line x1="696.775" y1="124" x2="696.775" y2="-9.85462e-09" stroke="white" stroke-width="0.450895"/>
<line x1="34.7746" y1="124" x2="34.7746" y2="-9.85462e-09" stroke="white" stroke-width="0.450895"/>
<line x1="365.775" y1="146" x2="365.775" y2="-8.03462e-09" stroke="white" stroke-width="0.450895"/>
<line x1="100.775" y1="146" x2="100.775" y2="-8.03462e-09" stroke="white" stroke-width="0.450895"/>
</svg>
