<svg width="320" height="312" viewBox="0 0 320 312" fill="none" xmlns="http://www.w3.org/2000/svg">
<rect x="320" width="186" height="320" transform="rotate(90 320 0)" fill="#98A8F8"/>
<line x1="305" y1="54.2254" x2="74" y2="54.2254" stroke="white" stroke-width="0.450895"/>
<line x1="209" y1="87.2254" x2="7" y2="87.2254" stroke="white" stroke-width="0.450895"/>
<line x1="320" y1="120.225" y2="120.225" stroke="white" stroke-width="0.450895"/>
<line x1="320" y1="153.225" y2="153.225" stroke="white" stroke-width="0.450895"/>
<line x1="303.702" y1="186.225" x2="76.0001" y2="186.225" stroke="white" stroke-width="0.450895"/>
<line x1="320" y1="218.225" y2="218.225" stroke="#98A8F8" stroke-width="0.450895"/>
<line x1="279" y1="286.225" x2="45" y2="286.225" stroke="#98A8F8" stroke-width="0.450895"/>
<line x1="303.702" y1="252.225" x2="76.0001" y2="252.225" stroke="#98A8F8" stroke-width="0.450895"/>
<line x1="222.775" y1="183" x2="222.775" y2="66" stroke="white" stroke-width="0.450895"/>
<line x1="255.775" y1="186" x2="255.775" y2="40" stroke="white" stroke-width="0.450895"/>
<line x1="288.775" y1="186" x2="288.775" y2="40" stroke="white" stroke-width="0.450895"/>
<line x1="189.775" y1="186" x2="189.775" y2="40" stroke="white" stroke-width="0.450895"/>
<line x1="156.775" y1="186" x2="156.775" y2="58" stroke="white" stroke-width="0.450895"/>
<line x1="90.7746" y1="186" x2="90.7745" y2="47" stroke="white" stroke-width="0.450895"/>
<line x1="23.7746" y1="186" x2="23.7746" y2="57" stroke="white" stroke-width="0.450895"/>
<line x1="23.7746" y1="265" x2="23.7746" y2="186" stroke="#98A8F8" stroke-width="0.450895"/>
<line x1="90.7746" y1="249" x2="90.7746" y2="186" stroke="#98A8F8" stroke-width="0.450895"/>
<line x1="57.7746" y1="299" x2="57.7746" y2="216" stroke="#98A8F8" stroke-width="0.450895"/>
<line x1="123.775" y1="279" x2="123.775" y2="186" stroke="#98A8F8" stroke-width="0.450895"/>
<line x1="156.775" y1="299" x2="156.775" y2="186" stroke="#98A8F8" stroke-width="0.450895"/>
<line x1="189.775" y1="299" x2="189.775" y2="211" stroke="#98A8F8" stroke-width="0.450895"/>
<line x1="222.775" y1="236" x2="222.775" y2="186" stroke="#98A8F8" stroke-width="0.450895"/>
<line x1="255.775" y1="299" x2="255.775" y2="186" stroke="#98A8F8" stroke-width="0.450895"/>
<line x1="288.775" y1="312" x2="288.775" y2="186" stroke="#98A8F8" stroke-width="0.450895"/>
<line x1="57.7746" y1="164" x2="57.7746" y2="40" stroke="white" stroke-width="0.450895"/>
<line x1="123.775" y1="186" x2="123.775" y2="40" stroke="white" stroke-width="0.450895"/>
</svg>
