<svg width="88" height="29" viewBox="0 0 88 29" fill="none" xmlns="http://www.w3.org/2000/svg">
<g clip-path="url(#clip0_9_267)">
<path d="M57.2603 0C51.0182 0 45.44 3.23855 45.44 9.22202C45.44 16.0839 55.3332 16.5579 55.3332 20.0051C55.3332 21.4566 53.6714 22.7559 50.8331 22.7559C46.8051 22.7559 43.7946 20.9404 43.7946 20.9404L42.5064 26.9783C42.5064 26.9783 45.9745 28.5119 50.5789 28.5119C57.4035 28.5119 62.7737 25.1144 62.7737 19.0286C62.7737 11.7777 52.8393 11.3179 52.8393 8.11826C52.8393 6.98123 54.2034 5.73539 57.0336 5.73539C60.2268 5.73539 62.8321 7.05577 62.8321 7.05577L64.0928 1.2241C64.0928 1.2241 61.258 0 57.2603 0ZM0.151146 0.440127L0 1.32038C0 1.32038 2.62606 1.80146 4.99125 2.7611C8.03664 3.86153 8.25358 4.50214 8.76647 6.49186L14.3554 28.058H21.8475L33.3895 0.440127H25.9147L18.4982 19.2177L15.4719 3.30095C15.1943 1.47929 13.7885 0.440127 12.0676 0.440127H0.151146ZM36.3953 0.440127L30.5315 28.058H37.6594L43.5026 0.440127H36.3953ZM76.1501 0.440127C74.4313 0.440127 73.5206 1.36124 72.8524 2.97085L62.4096 28.058H69.8844L71.3306 23.8768H80.4371L81.3165 28.058H87.912L82.1581 0.440127H76.1501ZM77.1222 7.90164L79.3379 18.2652H73.402L77.1222 7.90164Z" fill="white"/>
</g>
<defs>
<clipPath id="clip0_9_267">
<rect width="88" height="28.6" fill="white"/>
</clipPath>
</defs>
</svg>
